<svg
   version="1.1"
   viewBox="0 0 625.7005 372.18875"
   xmlns:xlink="http://www.w3.org/1999/xlink"
   xmlns="http://www.w3.org/2000/svg"
   xmlns:svg="http://www.w3.org/2000/svg">
  <style>
    .text {
      fill: #111111;
    }

    .accent-stroke {
      stroke: #e5a93b;
    }

    .accent-fill {
      fill: #e5a93b;
    }

    @media (prefers-color-scheme: dark) {
      .text {
        fill: #ffffff;
      }
    }
  </style>
  <defs
     id="defs7">
    <clipPath
       id="clip_2">
      <path
         transform="scale(0.24)"
         d="M 0,0 H 3300 V 2000 H 0 Z"
         clip-rule="evenodd"
         id="path1" />
    </clipPath>
    <clipPath
       id="clip_3">
      <path
         transform="scale(0.24)"
         d="M 0,0 H 3300 V 2000 H 0 Z"
         id="path2" />
    </clipPath>
    <clipPath
       id="clip_4">
      <path
         transform="scale(0.24)"
         d="M 0,0 H 3300 V 2000 H 0 Z"
         id="path3" />
    </clipPath>
    <clipPath
       id="clip_5">
      <path
         transform="scale(0.24)"
         d="m 2675.3956,41.826318 h 32.9758 V 74.80205 h -32.9758 z"
         id="path4" />
    </clipPath>
    <clipPath
       id="clip_6">
      <path
         transform="scale(0.24)"
         d="m 2691.8834,41.826318 c -9.106,0 -16.4878,7.381871 -16.4878,16.487866 0,9.105996 7.3818,16.487866 16.4878,16.487866 9.1059,0 16.488,-7.38187 16.488,-16.487866 0,-9.105995 -7.3821,-16.487866 -16.488,-16.487866 z"
         id="path5" />
    </clipPath>
    <clipPath
       id="clip_7">
      <path
         transform="matrix(0.24,0,0,0.24,642,9.84)"
         d="M 0,0 H 34 V 34 H 0 Z"
         id="path6" />
    </clipPath>
    <clipPath
       id="clip_8">
      <path
         transform="scale(0.24)"
         d="M 0,0 H 3300 V 2000 H 0 Z"
         clip-rule="evenodd"
         id="path7" />
    </clipPath>
    <path
       id="font_9_397"
       d="m 0.30371095,-0.01171875 c -0.0472005,0 -0.0883789,0.00805664 -0.12353517,0.02416992 -0.0351563,0.01611328 -0.0627441,0.0386556 -0.08276367,0.06762696 -0.02001953,0.02897135 -0.03116862,0.0625 -0.03344726,0.10058593 h 0.04638671 c 0.001953,-0.0305989 0.0113119,-0.0571289 0.0280762,-0.0795898 0.0167643,-0.02246094 0.0393066,-0.03971354 0.067627,-0.05175781 C 0.234375,0.03727214 0.2669271,0.03125 0.30371095,0.03125 c 0.0390625,0 0.0734049,0.0065918 0.10302734,0.01977539 0.0296224,0.0131836 0.0527344,0.0316569 0.0693359,0.05541992 0.0166016,0.023763 0.0249024,0.0514323 0.0249024,0.0830078 0,0.0247396 -0.005859,0.0461426 -0.0175781,0.064209 -0.0117188,0.0180664 -0.0292155,0.0338542 -0.0524902,0.0473633 -0.0232747,0.0135091 -0.0528157,0.0256348 -0.088623,0.036377 L 0.25878907,0.3623047 C 0.1998698,0.3798828 0.15551758,0.40364585 0.12573242,0.43359376 0.09594727,0.46354167 0.08105469,0.5004883 0.08105469,0.5444336 c 0,0.0377605 0.0099284,0.0712077 0.02978516,0.1003418 0.0198568,0.0291341 0.046875,0.052002 0.0810547,0.0686035 0.0341797,0.0166016 0.0730794,0.0249024 0.11669923,0.0249024 0.0439453,0 0.0825195,-0.008464 0.11572264,-0.0253907 0.0332031,-0.016927 0.0595703,-0.040039 0.0791016,-0.0693359 0.0195312,-0.0292969 0.0302734,-0.0628255 0.0322266,-0.10058593 h -0.0454102 c -0.003581,0.0455729 -0.0218099,0.0824381 -0.0546875,0.11059571 -0.0328776,0.0281575 -0.0755208,0.0422363 -0.12792968,0.0422363 -0.0348307,0 -0.0659993,-0.006429 -0.0935059,-0.0192871 -0.0275065,-0.0128581 -0.0490723,-0.0305989 -0.0646973,-0.0532227 -0.015625,-0.0226237 -0.0234375,-0.0484212 -0.0234375,-0.0773925 0,-0.0240886 0.006104,-0.0452474 0.0183106,-0.0634766 0.012207,-0.0182292 0.029541,-0.0337728 0.0520019,-0.0466309 0.0224609,-0.0128581 0.0486654,-0.0238444 0.0786133,-0.032959 l 0.0805664,-0.0234375 c 0.0286458,-0.008464 0.0546061,-0.0183919 0.0778808,-0.0297852 0.0232748,-0.0113932 0.0432943,-0.0246582 0.0600586,-0.0397949 0.0167644,-0.0151367 0.0297038,-0.0326335 0.0388184,-0.0524902 0.009115,-0.0198568 0.0136719,-0.0424805 0.0136719,-0.0678711 0,-0.038737 -0.009928,-0.0732422 -0.0297852,-0.10351563 C 0.4962565,0.05566406 0.46818034,0.03181966 0.43188478,0.0144043 0.3955892,-0.00301107 0.3528646,-0.01171875 0.30371095,-0.01171875 Z" />
    <path
       id="font_9_614"
       d="m 0.29345704,-0.01074219 c -0.0485026,0 -0.0908203,0.0120341 -0.12695314,0.0361023 C 0.1303711,0.0494283 0.1023763,0.08243815 0.08251953,0.12438965 0.06266276,0.16635135 0.05273438,0.21416215 0.05273438,0.26782228 c 0,0.0536702 0.0099284,0.1015625 0.02978515,0.14367675 0.01985678,0.0421143 0.04728191,0.0752055 0.08227539,0.0992737 0.0349935,0.0240682 0.0751139,0.0361023 0.12036134,0.0361023 0.0315755,0 0.0611165,-0.006185 0.088623,-0.0185547 0.0275065,-0.0123698 0.0516764,-0.030192 0.0725098,-0.0534668 0.0208333,-0.0232748 0.037028,-0.0513509 0.048584,-0.0842285 0.0115559,-0.0328776 0.017334,-0.069987 0.017334,-0.11132812 V 0.25976563 H 0.07958985 V 0.2993164 H 0.48828126 L 0.46875,0.28466798 c 0,0.0419922 -0.007731,0.0797526 -0.0231934,0.11328125 -0.0154623,0.0335286 -0.0369466,0.0599772 -0.0644531,0.0793457 -0.0275065,0.0193685 -0.0594889,0.0290527 -0.0959473,0.0290527 -0.0361328,0 -0.0683594,-0.009918 -0.0966797,-0.0297546 C 0.16015625,0.4567566 0.13785808,0.42992655 0.12158203,0.3961029 0.10530599,0.36228944 0.09716797,0.32424418 0.09716797,0.28196717 v -0.0170746 c 0,-0.044871 0.0078939,-0.0850322 0.02368164,-0.12048341 0.0157878,-0.0354411 0.0384115,-0.06332397 0.0678711,-0.08364868 0.0294597,-0.02032471 0.0645345,-0.03048706 0.1052246,-0.03048706 0.0292969,0 0.0546875,0.004954 0.0761719,0.01486206 0.0214844,0.009908 0.039388,0.02257792 0.0537109,0.03800964 0.0143229,0.01543173 0.0247396,0.03111267 0.03125,0.04704285 l 0.0415039,-0.0126953 C 0.488444,0.09603882 0.4752604,0.07556152 0.45703126,0.05606079 0.4388021,0.03656006 0.41593424,0.0205485 0.38842774,0.00802612 0.36092124,-0.00448608 0.3292643,-0.01074219 0.29345704,-0.01074219 Z" />
    <path
       id="font_9_852"
       d="M 0.08398438,0 V 0.5390625 H 0.12695313 V 0.4521484 h 0.00293 c 0.0120443,0.0281779 0.0319824,0.050766 0.0598145,0.0677643 0.027832,0.0169983 0.0596517,0.0254975 0.095459,0.0254975 0.004232,0 0.008057,0 0.0114746,0 0.003418,0 0.006917,-1.6278e-4 0.010498,-4.8828e-4 v -0.0439453 c -0.002279,3.255e-4 -0.005615,7.3241e-4 -0.0100097,0.001221 -0.004395,4.8828e-4 -0.009521,7.3241e-4 -0.0153809,7.3241e-4 -0.0292969,0 -0.0555827,-0.00651 -0.0788574,-0.0195313 -0.0232747,-0.0130208 -0.0415853,-0.0308431 -0.0549316,-0.0534668 -0.0133464,-0.0226237 -0.0200195,-0.0489095 -0.0200195,-0.0788574 V 0 Z" />
    <path
       id="font_9_689"
       d="M 0.08398438,9.765625e-4 V 0.54003909 H 0.12792969 V 9.765625e-4 H 0.08398438 M 0.10546875,0.65478518 c -0.0094401,0 -0.01765951,0.003418 -0.0246582,0.0102539 -0.0069987,0.006836 -0.01049805,0.0149739 -0.01049805,0.024414 0,0.009766 0.0034993,0.0179037 0.01049805,0.0244141 0.0069987,0.00651 0.0152181,0.009766 0.0246582,0.009766 0.0100911,0 0.0185547,-0.003337 0.0253906,-0.0100097 0.006836,-0.006673 0.0102539,-0.0147298 0.0102539,-0.02417 0,-0.00944 -0.003418,-0.0175781 -0.0102539,-0.024414 -0.006836,-0.006836 -0.0152995,-0.0102539 -0.0253906,-0.0102543 z" />
    <path
       id="font_9_773"
       d="M 0.12792969,0.3466797 V 0 H 0.08398438 V 0.5390625 H 0.12695313 V 0.41748048 h -0.008789 c 0.0133565,0.0442708 0.0367381,0.0769043 0.0701447,0.0979004 0.0334167,0.0209961 0.0706584,0.0314941 0.11172486,0.0314941 0.0371603,0 0.0699209,-0.007813 0.0982819,-0.0234375 0.028361,-0.015625 0.0506083,-0.0378418 0.0667419,-0.0666504 C 0.481191,0.42797853 0.4892578,0.39339195 0.4892578,0.35302735 V 0 H 0.4453125 v 0.35107423 c 0,0.0472005 -0.0140177,0.0847982 -0.0420532,0.11279297 -0.0280355,0.0279948 -0.0650381,0.0419922 -0.11100769,0.0419922 -0.0313009,0 -0.0593414,-0.006592 -0.0841217,-0.0197754 C 0.18334961,0.4729004 0.16378784,0.4543457 0.14944458,0.43041993 0.13510132,0.40649415 0.12792969,0.37858073 0.12792969,0.3466797 Z" />
  </defs>
  <g
     id="g27"
     transform="translate(-99.521271)">
    <g
       clip-path="url(#clip_2)"
       id="g12">
      <path
         transform="matrix(0.6903817,-0.29304115,0.29304115,0.6903817,220.58016,189.90694)"
         stroke-width="8"
         stroke-linecap="round"
         stroke-miterlimit="4"
         stroke-linejoin="miter"
         fill="none"
         class="accent-stroke"
         d="M 4.6835219,4.6659848 C 235.4904,47.351026 438.68354,47.420419 614.2629,4.8741705"
         id="path8" />
      <path
         transform="matrix(0.51327779,-0.54685088,0.54685088,0.51327779,371.82948,303.3383)"
         stroke-width="8"
         stroke-linecap="round"
         stroke-miterlimit="4"
         stroke-linejoin="miter"
         fill="none"
         class="accent-stroke"
         d="M 5.5832636,5.52684 C 294.65669,171.11835 469.21043,171.66368 529.2445,7.162851"
         id="path9" />
      <path
         transform="matrix(0.5081286,-0.5516388,0.5516388,0.5081286,363.48796,295.2511)"
         stroke-width="8"
         stroke-linecap="round"
         stroke-miterlimit="4"
         stroke-linejoin="miter"
         fill="none"
         class="accent-stroke"
         d="M 4.60405,20.735522 C 158.37786,-1.6251271 333.7933,-1.5784096 530.8504,20.875674"
         id="path10" />
      <path
         transform="matrix(0.69048538,-0.29279668,0.29279668,0.69048538,219.73921,190.74869)"
         stroke-width="8"
         stroke-linecap="round"
         stroke-miterlimit="4"
         stroke-linejoin="miter"
         fill="none"
         class="accent-stroke"
         d="M 5.6374456,5.5972235 C 262.72749,174.20368 465.30427,174.45325 613.3678,6.3459198"
         id="path11" />
      <path
         transform="matrix(-0.01133134,-0.7499144,0.7499144,-0.01133134,645.418,226.07022)"
         stroke-width="8"
         stroke-linecap="round"
         stroke-miterlimit="4"
         stroke-linejoin="miter"
         fill="none"
         class="accent-stroke"
         d="M 5.6768739,5.662535 C 147.10314,134.34172 240.04274,134.6646 284.49574,6.631127"
         id="path12" />
    </g>
    <g
       clip-path="url(#clip_3)"
       id="g18">
      <g
         clip-path="url(#clip_4)"
         id="g17">
        <g
           clip-path="url(#clip_5)"
           id="g16">
          <g
             clip-path="url(#clip_6)"
             id="g15">
            <g
               id="g14">
              <g
                 clip-path="url(#clip_7)"
                 id="g13">
                <path
                   class="accent-fill"
                   transform="matrix(0.03091475,0,0,0.03091475,642.0949,10.038316)"
                   d="M 0,0 H 256 V 256 H 0 Z"
                   id="path13" />
              </g>
            </g>
          </g>
        </g>
      </g>
    </g>
    <g
       clip-path="url(#clip_8)"
       id="g22">
      <use
         class="text"
         data-text="S"
         xlink:href="#font_9_397"
         transform="matrix(199.995,0,0,-199.995,86.72862,365.01164)"
         id="use18" />
      <use
         class="text"
         data-text="e"
         xlink:href="#font_9_614"
         transform="matrix(199.995,0,0,-199.995,248.89357,365.01164)"
         id="use19" />
      <use
         class="text"
         data-text="r"
         xlink:href="#font_9_852"
         transform="matrix(199.995,0,0,-199.995,401.58613,365.01164)"
         id="use20" />
      <use
         class="text"
         data-text="i"
         xlink:href="#font_9_689"
         transform="matrix(199.995,0,0,-199.995,507.89308,365.01164)"
         id="use21" />
      <use
         class="text"
         data-text="n"
         xlink:href="#font_9_773"
         transform="matrix(199.995,0,0,-199.995,590.4702,365.01164)"
         id="use22" />
    </g>
    <path
       transform="matrix(1,0,0,-1,0,487.91999)"
       d="M 363.48905,179.80942 H 649.4123 V 487.91999 H 363.48905 Z"
       fill-opacity="0"
       id="path22" />
    <path
       transform="matrix(1,0,0,-1,0,487.91999)"
       d="m 642.1389,261.8417 h 83.08287 V 480.1809 H 642.1389 Z"
       fill-opacity="0"
       id="path23" />
    <path
       transform="matrix(1,0,0,-1,0,487.91999)"
       d="M 220.57862,269.89024 H 659.9131 V 479.42536 H 220.57862 Z"
       fill-opacity="0"
       id="path24" />
    <path
       transform="matrix(1,0,0,-1,0,487.91999)"
       d="M 219.73856,203.09932 H 687.05239 V 478.41737 H 219.73856 Z"
       fill-opacity="0"
       id="path25" />
    <path
       transform="matrix(1,0,0,-1,0,487.91999)"
       d="m 642.0949,469.9675 h 7.9142 v 7.91419 h -7.9142 z"
       fill-opacity="0"
       id="path26" />
    <path
       transform="matrix(1,0,0,-1,0,487.91999)"
       d="M 371.82936,115.73123 H 719.4441 V 476.78227 H 371.82936 Z"
       fill-opacity="0"
       id="path27" />
  </g>
  <ellipse
     class="accent-fill"
     style="stroke-width: 1.13855"
     id="path28"
     cx="546.23608"
     cy="11.490101"
     rx="3.2256649"
     ry="2.133101" />
</svg>
